<svg enable-background="new 0 0 497 497" height="512" id="Layer_1" viewBox="0 0 497 497" width="512"
    xmlns="http://www.w3.org/2000/svg">
    <g>
        <g>
            <g>
                <path d="m285.97 131.035h166.625v234.93h-166.625z" fill="#fff6db" />
                <path d="m422.595 131.035h30v234.93h-30z" fill="#ffeebd" />
                <path d="m285.97 365.965 76.068-58.474v-176.456h-76.068z" fill="#2fb663" />
            </g>
            <g>
                <g fill="#2fb663">
                    <path
                        d="m193.501 215.914c-4.143 0-7.5 3.357-7.5 7.5v49.535c0 4.143 3.357 7.5 7.5 7.5s7.5-3.357 7.5-7.5v-49.535c0-4.143-3.357-7.5-7.5-7.5z" />
                    <path
                        d="m103.769 231.366c4.143 0 7.5-3.357 7.5-7.5s-3.357-7.5-7.5-7.5h-20.681c-4.143 0-7.5 3.357-7.5 7.5v49.083c0 4.143 3.357 7.5 7.5 7.5h20.681c4.143 0 7.5-3.357 7.5-7.5s-3.357-7.5-7.5-7.5h-13.181v-9.542h11.656c4.143 0 7.5-3.357 7.5-7.5s-3.357-7.5-7.5-7.5h-11.656v-9.541z" />
                    <path
                        d="m157.82 246.426 13.168-18.693c2.385-3.387 1.573-8.065-1.813-10.451-3.388-2.386-8.065-1.573-10.451 1.813l-10.073 14.298-10.055-14.294c-2.382-3.386-7.058-4.204-10.449-1.818-3.388 2.383-4.202 7.062-1.818 10.449l13.147 18.689-15.647 22.211c-2.385 3.387-1.573 8.065 1.813 10.451 1.313.925 2.82 1.369 4.313 1.369 2.357 0 4.678-1.108 6.139-3.182l12.551-17.817 12.531 17.813c1.46 2.075 3.781 3.186 6.141 3.186 1.49 0 2.996-.443 4.309-1.367 3.388-2.383 4.202-7.062 1.818-10.449z" />
                    <path
                        d="m247.049 215.914h-27.355c-4.143 0-7.5 3.357-7.5 7.5s3.357 7.5 7.5 7.5h6.122v42.035c0 4.143 3.357 7.5 7.5 7.5s7.5-3.357 7.5-7.5v-42.035h6.233c4.143 0 7.5-3.357 7.5-7.5s-3.358-7.5-7.5-7.5z" />
                </g>
                <path d="m260.785 192.412h-30l67.218 56.088-67.218 56.088h30l67.218-56.088z"
                    fill="#ffeebd" />
                <path d="m328.003 248.5-67.218-56.088h-216.38v112.176h216.38z" fill="#fff6db" />
            </g>
        </g>
        <path
            d="m485.277 415.871h-473.554c-6.475 0-11.723-5.249-11.723-11.723v-311.296c0-6.474 5.248-11.723 11.723-11.723h473.555c6.474 0 11.723 5.248 11.723 11.723v311.296c-.001 6.474-5.249 11.723-11.724 11.723z"
            fill="#57ffae" />
    </g>
</svg>