<?xml version="1.0"?>
<svg height="512" viewBox="0 0 64 64" width="512" xmlns="http://www.w3.org/2000/svg">
    <g id="FillOutline">
        <circle style="fill:#eeb83b" cx="44" cy="46" r="15" />
        <circle style="fill:#fed856" cx="44" cy="46" r="11" />
        <path style="fill:#eae6e2"
            d="M10,6V61H34.137A18.863,18.863,0,0,0,53,42.137V6a3,3,0,0,1,3-3H13A3,3,0,0,0,10,6Z" />
        <path style="fill:#0071bc" d="M8,61a3,3,0,0,1-3-3V55H40v3a3,3,0,0,0,3,3Z" />
        <path style="fill:#0071bc" d="M59,9H53V6a3,3,0,0,1,3-3h0a3,3,0,0,1,3,3Z" />
        <path style="fill:#0071bc" d="M7,9a2,2,0,0,0,0,4H35V9Z" />
        <path
            d="M60,9V6a4,4,0,0,0-4-4H13A4,4,0,0,0,9,6V8H7a3,3,0,0,0,0,6H9V54H5a1,1,0,0,0-1,1v3a4,4,0,0,0,4,4H44A15.986,15.986,0,0,0,54,33.53V10h5A1,1,0,0,0,60,9ZM6,11a1,1,0,0,1,1-1H34v2H7A1,1,0,0,1,6,11Zm34.764-1,2,1-2,1H36V10ZM8,60a2,2,0,0,1-2-2V56H31.53a16.123,16.123,0,0,0,4.741,4ZM58,46A14,14,0,1,1,44,32,14.015,14.015,0,0,1,58,46ZM44,30A15.971,15.971,0,0,0,30.165,54H11V14H41a1,1,0,0,0,.447-.105l4-2a1,1,0,0,0,0-1.79l-4-2A1,1,0,0,0,41,8H11V6a2,2,0,0,1,2-2H52.556A3.959,3.959,0,0,0,52,6V32.165A15.883,15.883,0,0,0,44,30ZM58,8H54V6a2,2,0,0,1,4,0Z" />
        <path
            d="M44,34A12,12,0,1,0,56,46,12.013,12.013,0,0,0,44,34Zm0,22A10,10,0,1,1,54,46,10.011,10.011,0,0,1,44,56Z" />
        <path d="M14,36v8a1,1,0,0,0,1,1H26V43H16V37H29V35H15A1,1,0,0,0,14,36Z" />
        <polygon style="fill:#80caec" points="45 11 41 9 35 9 35 13 41 13 45 11" />
        <rect style="fill:#80caec" height="8" width="23" x="15" y="36" />
        <rect height="2" transform="translate(-18.468 41.758) rotate(-45)" width="2" x="40.172"
            y="42.172" />
        <rect height="2" transform="translate(-20.811 47.414) rotate(-45)" width="2" x="45.828"
            y="47.828" />
        <rect height="2" transform="translate(-19.64 44.586) rotate(-45)" width="11.999" x="38.001"
            y="45" />
        <rect height="2" width="2" x="16" y="17" />
        <rect height="2" width="29" x="20" y="17" />
        <rect height="2" width="35" x="14" y="21" />
        <rect height="2" width="35" x="14" y="25" />
        <rect height="2" width="20" x="14" y="29" />
        <rect height="2" width="10" x="14" y="49" />
        <rect height="17" width="2" x="56" y="14" />
        <rect height="24" width="2" x="5" y="18" />
        <rect height="2" width="2" x="5" y="44" />
    </g>
    <title>Loans-terms-contract-money-Agreement</title>
</svg>
