<svg height="512pt" viewBox="-69 0 512 512" width="512pt" xmlns="http://www.w3.org/2000/svg">
    <path
        d="m272.835938 189.695312c-8.285157 0-15-6.714843-15-15v-83.234374c0-33.890626-31.816407-61.460938-70.921876-61.460938-39.105468 0-70.917968 27.570312-70.917968 61.460938v83.234374c0 8.285157-6.71875 15-15 15-8.285156 0-15-6.714843-15-15v-83.234374c0-50.433594 45.273437-91.460938 100.917968-91.460938 55.648438 0 100.921876 41.027344 100.921876 91.460938v83.234374c0 8.285157-6.71875 15-15 15zm0 0"
        fill="#ededf2" />
    <path
        d="m186.914062 0v30c39.105469 0 70.921876 27.570312 70.921876 61.460938v83.234374c0 8.285157 6.714843 15 15 15 8.28125 0 15-6.714843 15-15v-83.234374c0-50.433594-45.273438-91.460938-100.921876-91.460938zm0 0"
        fill="#e2e2e7" />
    <path
        d="m358.828125 164.53125h-343.828125c-8.285156 0-15 6.71875-15 15v191.832031c0 77.546875 63.089844 140.636719 140.636719 140.636719h92.558593c77.546876 0 140.636719-63.089844 140.636719-140.636719v-191.832031c-.003906-8.28125-6.71875-15-15.003906-15zm0 0"
        fill="#ffd74a" />
    <path
        d="m358.828125 164.53125h-171.914063v347.46875h46.277344c77.546875 0 140.636719-63.089844 140.636719-140.636719v-191.832031c0-8.28125-6.714844-15-15-15zm0 0"
        fill="#fdbf00" />
    <path
        d="m186.914062 384.335938c-8.28125 0-15-6.71875-15-15v-62.136719c0-8.285157 6.71875-15 15-15 8.285157 0 15 6.714843 15 15v62.136719c0 8.28125-6.714843 15-15 15zm0 0"
        fill="#fdbf00" />
    <path
        d="m201.914062 369.335938v-62.136719c0-8.285157-6.714843-15-15-15v92.136719c8.285157 0 15-6.71875 15-15zm0 0"
        fill="#ff9f00" />
</svg>